<svg width="21" height="21" viewBox="0 0 21 21" fill="none" xmlns="http://www.w3.org/2000/svg">
<path id="icon/action/alarm_24px" fill-rule="evenodd" clip-rule="evenodd" d="M5.96701 1.5358L4.66873 0L0 3.8436L1.29818 5.3794L5.96701 1.5358ZM15.4841 0.000488281L20.153 3.84409L18.8547 5.37989L14.1858 1.53629L15.4841 0.000488281ZM10.5838 6.18945H9.06376V12.1895L13.8771 15.0395L14.6371 13.8095L10.5838 11.4395V6.18945ZM10.0771 2.18945C5.04083 2.18945 0.957096 6.21945 0.957096 11.1895C0.957096 16.1595 5.04083 20.1895 10.0771 20.1895C15.1134 20.1895 19.1971 16.1595 19.1971 11.1895C19.1971 6.21945 15.1134 2.18945 10.0771 2.18945ZM2.98376 11.1895C2.98376 15.0495 6.16563 18.1895 10.0771 18.1895C13.9886 18.1895 17.1704 15.0495 17.1704 11.1895C17.1704 7.32945 13.9886 4.18945 10.0771 4.18945C6.16563 4.18945 2.98376 7.32945 2.98376 11.1895Z" fill="#606060"/>
</svg>
