<svg width="8" height="11" viewBox="0 0 8 11" fill="none" xmlns="http://www.w3.org/2000/svg">
<path d="M7.59312 9.6582V10.5542H0.719122V9.8402L4.79312 5.8502C5.30646 5.3462 5.65179 4.9122 5.82912 4.5482C6.01579 4.17487 6.10912 3.80153 6.10912 3.4282C6.10912 2.84953 5.90846 2.40153 5.50712 2.0842C5.11512 1.75753 4.55046 1.5942 3.81312 1.5942C2.66512 1.5942 1.77379 1.9582 1.13912 2.6862L0.425122 2.0702C0.807789 1.6222 1.29312 1.27687 1.88112 1.0342C2.47846 0.791532 3.15046 0.670199 3.89712 0.670199C4.89579 0.670199 5.68446 0.908199 6.26312 1.3842C6.85112 1.85087 7.14512 2.49487 7.14512 3.3162C7.14512 3.8202 7.03312 4.30553 6.80912 4.7722C6.58512 5.23887 6.16046 5.77553 5.53512 6.3822L2.20312 9.6582H7.59312Z" fill="#F2F2F2"/>
</svg>
