<svg width="10" height="14" viewBox="0 0 10 14" fill="none" xmlns="http://www.w3.org/2000/svg">
<path d="M5.94918 6.3542C7.26918 6.4262 8.27118 6.7862 8.95518 7.4342C9.65118 8.0702 9.99918 8.9042 9.99918 9.9362C9.99918 10.6562 9.82518 11.2982 9.47718 11.8622C9.12918 12.4142 8.61318 12.8522 7.92918 13.1762C7.24518 13.5002 6.41118 13.6622 5.42718 13.6622C4.51518 13.6622 3.65118 13.5182 2.83518 13.2302C2.03118 12.9302 1.38318 12.5342 0.891177 12.0422L1.52118 11.0162C1.94118 11.4482 2.49918 11.8022 3.19518 12.0782C3.89118 12.3422 4.63518 12.4742 5.42718 12.4742C6.45918 12.4742 7.25718 12.2522 7.82118 11.8082C8.38518 11.3522 8.66718 10.7282 8.66718 9.9362C8.66718 9.1562 8.38518 8.5442 7.82118 8.1002C7.25718 7.6562 6.40518 7.4342 5.26518 7.4342H4.36518V6.4802L7.85718 2.1062H1.41318V0.954198H9.51318V1.8722L5.94918 6.3542Z" fill="#F2F2F2"/>
</svg>
