<svg width="137" height="12" viewBox="0 0 137 12" fill="none" xmlns="http://www.w3.org/2000/svg">
<path d="M6.08833 11.3342C5.10833 11.3342 4.22166 11.1195 3.42833 10.6902C2.64433 10.2515 2.02833 9.65417 1.58033 8.89817C1.13233 8.13283 0.908328 7.27417 0.908328 6.32217C0.908328 5.37017 1.13233 4.51617 1.58033 3.76017C2.02833 2.99483 2.64899 2.3975 3.44233 1.96817C4.23566 1.5295 5.12233 1.31017 6.10233 1.31017C6.86766 1.31017 7.56766 1.44083 8.20233 1.70217C8.837 1.95417 9.37833 2.33217 9.82633 2.83617L8.91633 3.71817C8.17899 2.9435 7.25966 2.55617 6.15833 2.55617C5.43033 2.55617 4.77233 2.7195 4.18433 3.04617C3.59633 3.37283 3.13433 3.8255 2.79833 4.40417C2.47166 4.9735 2.30833 5.61283 2.30833 6.32217C2.30833 7.0315 2.47166 7.6755 2.79833 8.25417C3.13433 8.8235 3.59633 9.2715 4.18433 9.59817C4.77233 9.92483 5.43033 10.0882 6.15833 10.0882C7.25033 10.0882 8.16966 9.69617 8.91633 8.91217L9.82633 9.79417C9.37833 10.2982 8.83233 10.6808 8.18833 10.9422C7.55366 11.2035 6.85366 11.3342 6.08833 11.3342ZM14.2338 3.73217C15.2605 3.73217 16.0445 3.98417 16.5858 4.48817C17.1365 4.99217 17.4118 5.7435 17.4118 6.74217V11.2222H16.1378V10.2422C15.9138 10.5875 15.5918 10.8535 15.1718 11.0402C14.7611 11.2175 14.2711 11.3062 13.7018 11.3062C12.8711 11.3062 12.2038 11.1055 11.6998 10.7042C11.2051 10.3028 10.9578 9.7755 10.9578 9.12217C10.9578 8.46883 11.1958 7.94617 11.6718 7.55417C12.1478 7.15283 12.9038 6.95217 13.9398 6.95217H16.0678V6.68617C16.0678 6.1075 15.8998 5.66417 15.5638 5.35617C15.2278 5.04817 14.7331 4.89417 14.0798 4.89417C13.6411 4.89417 13.2118 4.96883 12.7918 5.11817C12.3718 5.25817 12.0171 5.4495 11.7278 5.69217L11.1678 4.68417C11.5505 4.37617 12.0078 4.14283 12.5398 3.98417C13.0718 3.81617 13.6365 3.73217 14.2338 3.73217ZM13.9258 10.2702C14.4391 10.2702 14.8825 10.1582 15.2558 9.93417C15.6291 9.70083 15.8998 9.37417 16.0678 8.95417V7.91817H13.9958C12.8571 7.91817 12.2878 8.30083 12.2878 9.06617C12.2878 9.4395 12.4325 9.7335 12.7218 9.94817C13.0111 10.1628 13.4125 10.2702 13.9258 10.2702ZM26.94 0.834167V11.2222H25.652V10.0462C25.3533 10.4568 24.9753 10.7695 24.518 10.9842C24.0607 11.1988 23.5567 11.3062 23.006 11.3062C22.2873 11.3062 21.6433 11.1475 21.074 10.8302C20.5047 10.5128 20.0567 10.0695 19.73 9.50017C19.4127 8.9215 19.254 8.25883 19.254 7.51217C19.254 6.7655 19.4127 6.1075 19.73 5.53817C20.0567 4.96883 20.5047 4.5255 21.074 4.20817C21.6433 3.89083 22.2873 3.73217 23.006 3.73217C23.538 3.73217 24.028 3.83483 24.476 4.04017C24.924 4.23617 25.2973 4.53017 25.596 4.92217V0.834167H26.94ZM23.118 10.1302C23.5847 10.1302 24.0093 10.0228 24.392 9.80817C24.7747 9.58417 25.0733 9.27617 25.288 8.88417C25.5027 8.48283 25.61 8.0255 25.61 7.51217C25.61 6.99883 25.5027 6.54617 25.288 6.15417C25.0733 5.75283 24.7747 5.44483 24.392 5.23017C24.0093 5.0155 23.5847 4.90817 23.118 4.90817C22.642 4.90817 22.2127 5.0155 21.83 5.23017C21.4567 5.44483 21.158 5.75283 20.934 6.15417C20.7193 6.54617 20.612 6.99883 20.612 7.51217C20.612 8.0255 20.7193 8.48283 20.934 8.88417C21.158 9.27617 21.4567 9.58417 21.83 9.80817C22.2127 10.0228 22.642 10.1302 23.118 10.1302ZM32.185 3.73217C33.2117 3.73217 33.9957 3.98417 34.537 4.48817C35.0877 4.99217 35.363 5.7435 35.363 6.74217V11.2222H34.089V10.2422C33.865 10.5875 33.543 10.8535 33.123 11.0402C32.7123 11.2175 32.2223 11.3062 31.653 11.3062C30.8223 11.3062 30.155 11.1055 29.651 10.7042C29.1563 10.3028 28.909 9.7755 28.909 9.12217C28.909 8.46883 29.147 7.94617 29.623 7.55417C30.099 7.15283 30.855 6.95217 31.891 6.95217H34.019V6.68617C34.019 6.1075 33.851 5.66417 33.515 5.35617C33.179 5.04817 32.6843 4.89417 32.031 4.89417C31.5923 4.89417 31.163 4.96883 30.743 5.11817C30.323 5.25817 29.9683 5.4495 29.679 5.69217L29.119 4.68417C29.5017 4.37617 29.959 4.14283 30.491 3.98417C31.023 3.81617 31.5877 3.73217 32.185 3.73217ZM31.877 10.2702C32.3903 10.2702 32.8337 10.1582 33.207 9.93417C33.5803 9.70083 33.851 9.37417 34.019 8.95417V7.91817H31.947C30.8083 7.91817 30.239 8.30083 30.239 9.06617C30.239 9.4395 30.3837 9.7335 30.673 9.94817C30.9623 10.1628 31.3637 10.2702 31.877 10.2702ZM39.9782 11.3062C39.3715 11.3062 38.7882 11.2268 38.2282 11.0682C37.6682 10.9002 37.2295 10.6902 36.9122 10.4382L37.4722 9.37417C37.7988 9.6075 38.1955 9.79417 38.6622 9.93417C39.1288 10.0742 39.6002 10.1442 40.0762 10.1442C41.2522 10.1442 41.8402 9.80817 41.8402 9.13617C41.8402 8.91217 41.7608 8.73483 41.6022 8.60417C41.4435 8.4735 41.2428 8.38017 41.0002 8.32417C40.7668 8.25883 40.4308 8.18883 39.9922 8.11417C39.3948 8.02083 38.9048 7.9135 38.5222 7.79217C38.1488 7.67083 37.8268 7.4655 37.5562 7.17617C37.2855 6.88683 37.1502 6.48083 37.1502 5.95817C37.1502 5.28617 37.4302 4.7495 37.9902 4.34817C38.5502 3.9375 39.3015 3.73217 40.2442 3.73217C40.7388 3.73217 41.2335 3.79283 41.7282 3.91417C42.2228 4.0355 42.6288 4.19883 42.9462 4.40417L42.3722 5.46817C41.7655 5.07617 41.0515 4.88017 40.2302 4.88017C39.6608 4.88017 39.2268 4.9735 38.9282 5.16017C38.6295 5.34683 38.4802 5.59417 38.4802 5.90217C38.4802 6.14483 38.5642 6.33617 38.7322 6.47617C38.9002 6.61617 39.1055 6.71883 39.3482 6.78417C39.6002 6.8495 39.9502 6.92417 40.3982 7.00817C40.9955 7.11083 41.4762 7.22283 41.8402 7.34417C42.2135 7.45617 42.5308 7.65217 42.7922 7.93217C43.0535 8.21217 43.1842 8.60417 43.1842 9.10817C43.1842 9.78017 42.8948 10.3168 42.3162 10.7182C41.7468 11.1102 40.9675 11.3062 39.9782 11.3062ZM49.0358 10.7882C48.8398 10.9562 48.5972 11.0868 48.3078 11.1802C48.0185 11.2642 47.7198 11.3062 47.4118 11.3062C46.6652 11.3062 46.0865 11.1055 45.6758 10.7042C45.2652 10.3028 45.0598 9.72883 45.0598 8.98217V4.90817H43.7998V3.80217H45.0598V2.17817H46.4038V3.80217H48.5318V4.90817H46.4038V8.92617C46.4038 9.3275 46.5018 9.6355 46.6978 9.85017C46.9032 10.0648 47.1925 10.1722 47.5658 10.1722C47.9765 10.1722 48.3265 10.0555 48.6158 9.82217L49.0358 10.7882ZM51.9487 5.04817C52.1821 4.61883 52.5274 4.29217 52.9847 4.06817C53.4421 3.84417 53.9974 3.73217 54.6507 3.73217V5.03417C54.5761 5.02483 54.4734 5.02017 54.3427 5.02017C53.6147 5.02017 53.0407 5.2395 52.6207 5.67817C52.2101 6.1075 52.0047 6.7235 52.0047 7.52617V11.2222H50.6607V3.80217H51.9487V5.04817ZM58.9955 3.73217C60.0222 3.73217 60.8062 3.98417 61.3475 4.48817C61.8982 4.99217 62.1735 5.7435 62.1735 6.74217V11.2222H60.8995V10.2422C60.6755 10.5875 60.3535 10.8535 59.9335 11.0402C59.5229 11.2175 59.0329 11.3062 58.4635 11.3062C57.6329 11.3062 56.9655 11.1055 56.4615 10.7042C55.9669 10.3028 55.7195 9.7755 55.7195 9.12217C55.7195 8.46883 55.9575 7.94617 56.4335 7.55417C56.9095 7.15283 57.6655 6.95217 58.7015 6.95217H60.8295V6.68617C60.8295 6.1075 60.6615 5.66417 60.3255 5.35617C59.9895 5.04817 59.4949 4.89417 58.8415 4.89417C58.4029 4.89417 57.9735 4.96883 57.5535 5.11817C57.1335 5.25817 56.7789 5.4495 56.4895 5.69217L55.9295 4.68417C56.3122 4.37617 56.7695 4.14283 57.3015 3.98417C57.8335 3.81617 58.3982 3.73217 58.9955 3.73217ZM58.6875 10.2702C59.2009 10.2702 59.6442 10.1582 60.0175 9.93417C60.3909 9.70083 60.6615 9.37417 60.8295 8.95417V7.91817H58.7575C57.6189 7.91817 57.0495 8.30083 57.0495 9.06617C57.0495 9.4395 57.1942 9.7335 57.4835 9.94817C57.7729 10.1628 58.1742 10.2702 58.6875 10.2702ZM65.9487 5.04817C66.1821 4.61883 66.5274 4.29217 66.9847 4.06817C67.4421 3.84417 67.9974 3.73217 68.6507 3.73217V5.03417C68.5761 5.02483 68.4734 5.02017 68.3427 5.02017C67.6147 5.02017 67.0407 5.2395 66.6207 5.67817C66.2101 6.1075 66.0047 6.7235 66.0047 7.52617V11.2222H64.6607V3.80217H65.9487V5.04817ZM80.8687 7.55417C80.8687 7.65683 80.8593 7.79217 80.8407 7.96017H74.8207C74.9047 8.6135 75.1893 9.14083 75.6747 9.54217C76.1693 9.93417 76.7807 10.1302 77.5087 10.1302C78.3953 10.1302 79.1093 9.8315 79.6507 9.23417L80.3927 10.1022C80.0567 10.4942 79.6367 10.7928 79.1327 10.9982C78.638 11.2035 78.0827 11.3062 77.4667 11.3062C76.6827 11.3062 75.9873 11.1475 75.3807 10.8302C74.774 10.5035 74.3027 10.0508 73.9667 9.47217C73.64 8.8935 73.4767 8.24017 73.4767 7.51217C73.4767 6.7935 73.6353 6.14483 73.9527 5.56617C74.2793 4.9875 74.7227 4.5395 75.2827 4.22217C75.852 3.8955 76.4913 3.73217 77.2007 3.73217C77.91 3.73217 78.54 3.8955 79.0907 4.22217C79.6507 4.5395 80.0847 4.9875 80.3927 5.56617C80.71 6.14483 80.8687 6.8075 80.8687 7.55417ZM77.2007 4.86617C76.5567 4.86617 76.0153 5.06217 75.5767 5.45417C75.1473 5.84617 74.8953 6.3595 74.8207 6.99417H79.5807C79.506 6.36883 79.2493 5.86017 78.8107 5.46817C78.3813 5.06683 77.8447 4.86617 77.2007 4.86617ZM86.6969 3.73217C87.6396 3.73217 88.3863 4.0075 88.9369 4.55817C89.4969 5.0995 89.7769 5.8975 89.7769 6.95217V11.2222H88.4329V7.10617C88.4329 6.3875 88.2603 5.84617 87.9149 5.48217C87.5696 5.11817 87.0749 4.93617 86.4309 4.93617C85.7029 4.93617 85.1289 5.15083 84.7089 5.58017C84.2889 6.00017 84.0789 6.60683 84.0789 7.40017V11.2222H82.7349V3.80217H84.0229V4.92217C84.2936 4.5395 84.6576 4.2455 85.1149 4.04017C85.5816 3.83483 86.1089 3.73217 86.6969 3.73217ZM96.4362 10.7882C96.2402 10.9562 95.9976 11.0868 95.7082 11.1802C95.4189 11.2642 95.1202 11.3062 94.8122 11.3062C94.0656 11.3062 93.4869 11.1055 93.0762 10.7042C92.6656 10.3028 92.4602 9.72883 92.4602 8.98217V4.90817H91.2002V3.80217H92.4602V2.17817H93.8042V3.80217H95.9322V4.90817H93.8042V8.92617C93.8042 9.3275 93.9022 9.6355 94.0982 9.85017C94.3036 10.0648 94.5929 10.1722 94.9662 10.1722C95.3769 10.1722 95.7269 10.0555 96.0162 9.82217L96.4362 10.7882ZM98.0611 3.80217H99.4051V11.2222H98.0611V3.80217ZM98.7331 2.37417C98.4718 2.37417 98.2524 2.29017 98.0751 2.12217C97.9071 1.95417 97.8231 1.74883 97.8231 1.50617C97.8231 1.2635 97.9071 1.05817 98.0751 0.890167C98.2524 0.712834 98.4718 0.624168 98.7331 0.624168C98.9944 0.624168 99.2091 0.708168 99.3771 0.876168C99.5544 1.03483 99.6431 1.2355 99.6431 1.47817C99.6431 1.73017 99.5544 1.94483 99.3771 2.12217C99.2091 2.29017 98.9944 2.37417 98.7331 2.37417ZM108.971 0.834167V11.2222H107.683V10.0462C107.385 10.4568 107.007 10.7695 106.549 10.9842C106.092 11.1988 105.588 11.3062 105.037 11.3062C104.319 11.3062 103.675 11.1475 103.105 10.8302C102.536 10.5128 102.088 10.0695 101.761 9.50017C101.444 8.9215 101.285 8.25883 101.285 7.51217C101.285 6.7655 101.444 6.1075 101.761 5.53817C102.088 4.96883 102.536 4.5255 103.105 4.20817C103.675 3.89083 104.319 3.73217 105.037 3.73217C105.569 3.73217 106.059 3.83483 106.507 4.04017C106.955 4.23617 107.329 4.53017 107.627 4.92217V0.834167H108.971ZM105.149 10.1302C105.616 10.1302 106.041 10.0228 106.423 9.80817C106.806 9.58417 107.105 9.27617 107.319 8.88417C107.534 8.48283 107.641 8.0255 107.641 7.51217C107.641 6.99883 107.534 6.54617 107.319 6.15417C107.105 5.75283 106.806 5.44483 106.423 5.23017C106.041 5.0155 105.616 4.90817 105.149 4.90817C104.673 4.90817 104.244 5.0155 103.861 5.23017C103.488 5.44483 103.189 5.75283 102.965 6.15417C102.751 6.54617 102.643 6.99883 102.643 7.51217C102.643 8.0255 102.751 8.48283 102.965 8.88417C103.189 9.27617 103.488 9.58417 103.861 9.80817C104.244 10.0228 104.673 10.1302 105.149 10.1302ZM114.216 3.73217C115.243 3.73217 116.027 3.98417 116.568 4.48817C117.119 4.99217 117.394 5.7435 117.394 6.74217V11.2222H116.12V10.2422C115.896 10.5875 115.574 10.8535 115.154 11.0402C114.744 11.2175 114.254 11.3062 113.684 11.3062C112.854 11.3062 112.186 11.1055 111.682 10.7042C111.188 10.3028 110.94 9.7755 110.94 9.12217C110.94 8.46883 111.178 7.94617 111.654 7.55417C112.13 7.15283 112.886 6.95217 113.922 6.95217H116.05V6.68617C116.05 6.1075 115.882 5.66417 115.546 5.35617C115.21 5.04817 114.716 4.89417 114.062 4.89417C113.624 4.89417 113.194 4.96883 112.774 5.11817C112.354 5.25817 112 5.4495 111.71 5.69217L111.15 4.68417C111.533 4.37617 111.99 4.14283 112.522 3.98417C113.054 3.81617 113.619 3.73217 114.216 3.73217ZM113.908 10.2702C114.422 10.2702 114.865 10.1582 115.238 9.93417C115.612 9.70083 115.882 9.37417 116.05 8.95417V7.91817H113.978C112.84 7.91817 112.27 8.30083 112.27 9.06617C112.27 9.4395 112.415 9.7335 112.704 9.94817C112.994 10.1628 113.395 10.2702 113.908 10.2702ZM126.922 0.834167V11.2222H125.634V10.0462C125.336 10.4568 124.958 10.7695 124.5 10.9842C124.043 11.1988 123.539 11.3062 122.988 11.3062C122.27 11.3062 121.626 11.1475 121.056 10.8302C120.487 10.5128 120.039 10.0695 119.712 9.50017C119.395 8.9215 119.236 8.25883 119.236 7.51217C119.236 6.7655 119.395 6.1075 119.712 5.53817C120.039 4.96883 120.487 4.5255 121.056 4.20817C121.626 3.89083 122.27 3.73217 122.988 3.73217C123.52 3.73217 124.01 3.83483 124.458 4.04017C124.906 4.23617 125.28 4.53017 125.578 4.92217V0.834167H126.922ZM123.1 10.1302C123.567 10.1302 123.992 10.0228 124.374 9.80817C124.757 9.58417 125.056 9.27617 125.27 8.88417C125.485 8.48283 125.592 8.0255 125.592 7.51217C125.592 6.99883 125.485 6.54617 125.27 6.15417C125.056 5.75283 124.757 5.44483 124.374 5.23017C123.992 5.0155 123.567 4.90817 123.1 4.90817C122.624 4.90817 122.195 5.0155 121.812 5.23017C121.439 5.44483 121.14 5.75283 120.916 6.15417C120.702 6.54617 120.594 6.99883 120.594 7.51217C120.594 8.0255 120.702 8.48283 120.916 8.88417C121.14 9.27617 121.439 9.58417 121.812 9.80817C122.195 10.0228 122.624 10.1302 123.1 10.1302ZM136.171 7.55417C136.171 7.65683 136.162 7.79217 136.143 7.96017H130.123C130.207 8.6135 130.492 9.14083 130.977 9.54217C131.472 9.93417 132.083 10.1302 132.811 10.1302C133.698 10.1302 134.412 9.8315 134.953 9.23417L135.695 10.1022C135.359 10.4942 134.939 10.7928 134.435 10.9982C133.941 11.2035 133.385 11.3062 132.769 11.3062C131.985 11.3062 131.29 11.1475 130.683 10.8302C130.077 10.5035 129.605 10.0508 129.269 9.47217C128.943 8.8935 128.779 8.24017 128.779 7.51217C128.779 6.7935 128.938 6.14483 129.255 5.56617C129.582 4.9875 130.025 4.5395 130.585 4.22217C131.155 3.8955 131.794 3.73217 132.503 3.73217C133.213 3.73217 133.843 3.8955 134.393 4.22217C134.953 4.5395 135.387 4.9875 135.695 5.56617C136.013 6.14483 136.171 6.8075 136.171 7.55417ZM132.503 4.86617C131.859 4.86617 131.318 5.06217 130.879 5.45417C130.45 5.84617 130.198 6.3595 130.123 6.99417H134.883C134.809 6.36883 134.552 5.86017 134.113 5.46817C133.684 5.06683 133.147 4.86617 132.503 4.86617Z" fill="#0D132B"/>
</svg>
