<svg width="208" height="12" viewBox="0 0 208 12" fill="none" xmlns="http://www.w3.org/2000/svg">
<path opacity="0.65" d="M10.774 1.2V11H9.78V3.16L5.93 9.754H5.44L1.59 3.202V11H0.596V1.2H1.45L5.706 8.466L9.92 1.2H10.774ZM16.7671 11.07C16.0578 11.07 15.4184 10.9113 14.8491 10.594C14.2798 10.2673 13.8318 9.81933 13.5051 9.25C13.1784 8.68067 13.0151 8.03667 13.0151 7.318C13.0151 6.59933 13.1784 5.95533 13.5051 5.386C13.8318 4.81667 14.2798 4.37333 14.8491 4.056C15.4184 3.73867 16.0578 3.58 16.7671 3.58C17.4764 3.58 18.1158 3.73867 18.6851 4.056C19.2544 4.37333 19.6978 4.81667 20.0151 5.386C20.3418 5.95533 20.5051 6.59933 20.5051 7.318C20.5051 8.03667 20.3418 8.68067 20.0151 9.25C19.6978 9.81933 19.2544 10.2673 18.6851 10.594C18.1158 10.9113 17.4764 11.07 16.7671 11.07ZM16.7671 10.188C17.2898 10.188 17.7564 10.0713 18.1671 9.838C18.5871 9.59533 18.9138 9.25467 19.1471 8.816C19.3804 8.37733 19.4971 7.878 19.4971 7.318C19.4971 6.758 19.3804 6.25867 19.1471 5.82C18.9138 5.38133 18.5871 5.04533 18.1671 4.812C17.7564 4.56933 17.2898 4.448 16.7671 4.448C16.2444 4.448 15.7731 4.56933 15.3531 4.812C14.9424 5.04533 14.6158 5.38133 14.3731 5.82C14.1398 6.25867 14.0231 6.758 14.0231 7.318C14.0231 7.878 14.1398 8.37733 14.3731 8.816C14.6158 9.25467 14.9424 9.59533 15.3531 9.838C15.7731 10.0713 16.2444 10.188 16.7671 10.188ZM24.5084 11.07C23.9111 11.07 23.3371 10.986 22.7864 10.818C22.2451 10.6407 21.8204 10.4213 21.5124 10.16L21.9604 9.376C22.2684 9.61867 22.6558 9.81933 23.1224 9.978C23.5891 10.1273 24.0744 10.202 24.5784 10.202C25.2504 10.202 25.7451 10.0993 26.0624 9.894C26.3891 9.67933 26.5524 9.38067 26.5524 8.998C26.5524 8.72733 26.4638 8.51733 26.2864 8.368C26.1091 8.20933 25.8851 8.09267 25.6144 8.018C25.3438 7.934 24.9844 7.85467 24.5364 7.78C23.9391 7.668 23.4584 7.556 23.0944 7.444C22.7304 7.32267 22.4178 7.122 22.1564 6.842C21.9044 6.562 21.7784 6.17467 21.7784 5.68C21.7784 5.064 22.0351 4.56 22.5484 4.168C23.0618 3.776 23.7758 3.58 24.6904 3.58C25.1664 3.58 25.6424 3.64533 26.1184 3.776C26.5944 3.89733 26.9864 4.06067 27.2944 4.266L26.8604 5.064C26.2538 4.644 25.5304 4.434 24.6904 4.434C24.0558 4.434 23.5751 4.546 23.2484 4.77C22.9311 4.994 22.7724 5.288 22.7724 5.652C22.7724 5.932 22.8611 6.156 23.0384 6.324C23.2251 6.492 23.4538 6.618 23.7244 6.702C23.9951 6.77667 24.3684 6.856 24.8444 6.94C25.4324 7.052 25.9038 7.164 26.2584 7.276C26.6131 7.388 26.9164 7.57933 27.1684 7.85C27.4204 8.12067 27.5464 8.494 27.5464 8.97C27.5464 9.614 27.2758 10.1273 26.7344 10.51C26.2024 10.8833 25.4604 11.07 24.5084 11.07ZM33.262 10.552C33.0754 10.72 32.842 10.8507 32.562 10.944C32.2914 11.028 32.0067 11.07 31.708 11.07C31.0174 11.07 30.4854 10.8833 30.112 10.51C29.7387 10.1367 29.552 9.60933 29.552 8.928V4.476H28.236V3.636H29.552V2.026H30.546V3.636H32.786V4.476H30.546V8.872C30.546 9.31067 30.6534 9.64667 30.868 9.88C31.092 10.104 31.4094 10.216 31.82 10.216C32.0254 10.216 32.2214 10.1833 32.408 10.118C32.604 10.0527 32.772 9.95933 32.912 9.838L33.262 10.552ZM36.0235 5.078C36.2569 4.58333 36.6022 4.21 37.0595 3.958C37.5262 3.706 38.1002 3.58 38.7815 3.58V4.546L38.5435 4.532C37.7689 4.532 37.1622 4.77 36.7235 5.246C36.2849 5.722 36.0655 6.38933 36.0655 7.248V11H35.0715V3.636H36.0235V5.078ZM43.1436 3.58C44.105 3.58 44.8423 3.82267 45.3556 4.308C45.869 4.784 46.1256 5.49333 46.1256 6.436V11H45.1736V9.852C44.9496 10.2347 44.6183 10.5333 44.1796 10.748C43.7503 10.9627 43.237 11.07 42.6396 11.07C41.8183 11.07 41.165 10.874 40.6796 10.482C40.1943 10.09 39.9516 9.572 39.9516 8.928C39.9516 8.30267 40.1756 7.79867 40.6236 7.416C41.081 7.03333 41.8043 6.842 42.7936 6.842H45.1316V6.394C45.1316 5.75933 44.9543 5.27867 44.5996 4.952C44.245 4.616 43.727 4.448 43.0456 4.448C42.579 4.448 42.131 4.52733 41.7016 4.686C41.2723 4.83533 40.9036 5.04533 40.5956 5.316L40.1476 4.574C40.521 4.25667 40.969 4.014 41.4916 3.846C42.0143 3.66867 42.565 3.58 43.1436 3.58ZM42.7936 10.286C43.3536 10.286 43.8343 10.16 44.2356 9.908C44.637 9.64667 44.9356 9.27333 45.1316 8.788V7.584H42.8216C41.5616 7.584 40.9316 8.02267 40.9316 8.9C40.9316 9.32933 41.095 9.67 41.4216 9.922C41.7483 10.1647 42.2056 10.286 42.7936 10.286ZM52.5775 3.58C53.5015 3.58 54.2341 3.85067 54.7755 4.392C55.3261 4.924 55.6015 5.70333 55.6015 6.73V11H54.6075V6.828C54.6075 6.06267 54.4161 5.47933 54.0335 5.078C53.6508 4.67667 53.1048 4.476 52.3955 4.476C51.6021 4.476 50.9721 4.714 50.5055 5.19C50.0481 5.65667 49.8195 6.30533 49.8195 7.136V11H48.8255V3.636H49.7775V4.994C50.0481 4.546 50.4215 4.20067 50.8975 3.958C51.3828 3.706 51.9428 3.58 52.5775 3.58ZM65.0474 0.611999V11H64.0954V9.544C63.7967 10.0387 63.4001 10.4167 62.9054 10.678C62.4201 10.9393 61.8694 11.07 61.2534 11.07C60.5627 11.07 59.9374 10.9113 59.3774 10.594C58.8174 10.2767 58.3787 9.83333 58.0614 9.264C57.7441 8.69467 57.5854 8.046 57.5854 7.318C57.5854 6.59 57.7441 5.94133 58.0614 5.372C58.3787 4.80267 58.8174 4.364 59.3774 4.056C59.9374 3.73867 60.5627 3.58 61.2534 3.58C61.8507 3.58 62.3874 3.706 62.8634 3.958C63.3487 4.20067 63.7454 4.56 64.0534 5.036V0.611999H65.0474ZM61.3374 10.188C61.8507 10.188 62.3127 10.0713 62.7234 9.838C63.1434 9.59533 63.4701 9.25467 63.7034 8.816C63.9461 8.37733 64.0674 7.878 64.0674 7.318C64.0674 6.758 63.9461 6.25867 63.7034 5.82C63.4701 5.38133 63.1434 5.04533 62.7234 4.812C62.3127 4.56933 61.8507 4.448 61.3374 4.448C60.8147 4.448 60.3434 4.56933 59.9234 4.812C59.5127 5.04533 59.1861 5.38133 58.9434 5.82C58.7101 6.25867 58.5934 6.758 58.5934 7.318C58.5934 7.878 58.7101 8.37733 58.9434 8.816C59.1861 9.25467 59.5127 9.59533 59.9234 9.838C60.3434 10.0713 60.8147 10.188 61.3374 10.188ZM70.8257 11.07C70.1164 11.07 69.477 10.9113 68.9077 10.594C68.3384 10.2673 67.8904 9.81933 67.5637 9.25C67.237 8.68067 67.0737 8.03667 67.0737 7.318C67.0737 6.59933 67.237 5.95533 67.5637 5.386C67.8904 4.81667 68.3384 4.37333 68.9077 4.056C69.477 3.73867 70.1164 3.58 70.8257 3.58C71.535 3.58 72.1744 3.73867 72.7437 4.056C73.313 4.37333 73.7564 4.81667 74.0737 5.386C74.4004 5.95533 74.5637 6.59933 74.5637 7.318C74.5637 8.03667 74.4004 8.68067 74.0737 9.25C73.7564 9.81933 73.313 10.2673 72.7437 10.594C72.1744 10.9113 71.535 11.07 70.8257 11.07ZM70.8257 10.188C71.3484 10.188 71.815 10.0713 72.2257 9.838C72.6457 9.59533 72.9724 9.25467 73.2057 8.816C73.439 8.37733 73.5557 7.878 73.5557 7.318C73.5557 6.758 73.439 6.25867 73.2057 5.82C72.9724 5.38133 72.6457 5.04533 72.2257 4.812C71.815 4.56933 71.3484 4.448 70.8257 4.448C70.303 4.448 69.8317 4.56933 69.4117 4.812C69.001 5.04533 68.6744 5.38133 68.4317 5.82C68.1984 6.25867 68.0817 6.758 68.0817 7.318C68.0817 7.878 68.1984 8.37733 68.4317 8.816C68.6744 9.25467 69.001 9.59533 69.4117 9.838C69.8317 10.0713 70.303 10.188 70.8257 10.188ZM82.3151 1.2V11H81.3071V2.096H78.9971V1.2H82.3151ZM88.5637 11.084C87.8077 11.084 87.131 10.8833 86.5337 10.482C85.9457 10.0807 85.4837 9.50667 85.1477 8.76C84.821 8.004 84.6577 7.11733 84.6577 6.1C84.6577 5.08267 84.821 4.20067 85.1477 3.454C85.4837 2.698 85.9457 2.11933 86.5337 1.718C87.131 1.31667 87.8077 1.116 88.5637 1.116C89.3197 1.116 89.9917 1.31667 90.5797 1.718C91.177 2.11933 91.6437 2.698 91.9797 3.454C92.3157 4.20067 92.4837 5.08267 92.4837 6.1C92.4837 7.11733 92.3157 8.004 91.9797 8.76C91.6437 9.50667 91.177 10.0807 90.5797 10.482C89.9917 10.8833 89.3197 11.084 88.5637 11.084ZM88.5637 10.16C89.133 10.16 89.6324 10.0013 90.0617 9.684C90.5004 9.36667 90.841 8.90467 91.0837 8.298C91.3264 7.69133 91.4477 6.95867 91.4477 6.1C91.4477 5.24133 91.3264 4.50867 91.0837 3.902C90.841 3.29533 90.5004 2.83333 90.0617 2.516C89.6324 2.19867 89.133 2.04 88.5637 2.04C87.9944 2.04 87.4904 2.19867 87.0517 2.516C86.6224 2.83333 86.2864 3.29533 86.0437 3.902C85.801 4.50867 85.6797 5.24133 85.6797 6.1C85.6797 6.95867 85.801 7.69133 86.0437 8.298C86.2864 8.90467 86.6224 9.36667 87.0517 9.684C87.4904 10.0013 87.9944 10.16 88.5637 10.16ZM104.969 0.611999V11H104.017V9.544C103.719 10.0387 103.322 10.4167 102.827 10.678C102.342 10.9393 101.791 11.07 101.175 11.07C100.485 11.07 99.8593 10.9113 99.2993 10.594C98.7393 10.2767 98.3006 9.83333 97.9833 9.264C97.6659 8.69467 97.5073 8.046 97.5073 7.318C97.5073 6.59 97.6659 5.94133 97.9833 5.372C98.3006 4.80267 98.7393 4.364 99.2993 4.056C99.8593 3.73867 100.485 3.58 101.175 3.58C101.773 3.58 102.309 3.706 102.785 3.958C103.271 4.20067 103.667 4.56 103.975 5.036V0.611999H104.969ZM101.259 10.188C101.773 10.188 102.235 10.0713 102.645 9.838C103.065 9.59533 103.392 9.25467 103.625 8.816C103.868 8.37733 103.989 7.878 103.989 7.318C103.989 6.758 103.868 6.25867 103.625 5.82C103.392 5.38133 103.065 5.04533 102.645 4.812C102.235 4.56933 101.773 4.448 101.259 4.448C100.737 4.448 100.265 4.56933 99.8453 4.812C99.4346 5.04533 99.1079 5.38133 98.8653 5.82C98.6319 6.25867 98.5153 6.758 98.5153 7.318C98.5153 7.878 98.6319 8.37733 98.8653 8.816C99.1079 9.25467 99.4346 9.59533 99.8453 9.838C100.265 10.0713 100.737 10.188 101.259 10.188ZM114.15 7.626H107.99C108.046 8.39133 108.34 9.012 108.872 9.488C109.404 9.95467 110.076 10.188 110.888 10.188C111.345 10.188 111.765 10.1087 112.148 9.95C112.53 9.782 112.862 9.53933 113.142 9.222L113.702 9.866C113.375 10.258 112.964 10.5567 112.47 10.762C111.984 10.9673 111.448 11.07 110.86 11.07C110.104 11.07 109.432 10.9113 108.844 10.594C108.265 10.2673 107.812 9.81933 107.486 9.25C107.159 8.68067 106.996 8.03667 106.996 7.318C106.996 6.59933 107.15 5.95533 107.458 5.386C107.775 4.81667 108.204 4.37333 108.746 4.056C109.296 3.73867 109.912 3.58 110.594 3.58C111.275 3.58 111.886 3.73867 112.428 4.056C112.969 4.37333 113.394 4.81667 113.702 5.386C114.01 5.946 114.164 6.59 114.164 7.318L114.15 7.626ZM110.594 4.434C109.884 4.434 109.287 4.66267 108.802 5.12C108.326 5.568 108.055 6.156 107.99 6.884H113.212C113.146 6.156 112.871 5.568 112.386 5.12C111.91 4.66267 111.312 4.434 110.594 4.434ZM121.769 5.218C123.188 5.218 124.219 5.47467 124.863 5.988C125.516 6.492 125.843 7.20133 125.843 8.116C125.843 8.68533 125.708 9.194 125.437 9.642C125.176 10.09 124.779 10.4447 124.247 10.706C123.715 10.958 123.062 11.084 122.287 11.084C121.587 11.084 120.92 10.972 120.285 10.748C119.66 10.5147 119.156 10.2067 118.773 9.824L119.263 9.026C119.59 9.362 120.019 9.63733 120.551 9.852C121.083 10.0573 121.657 10.16 122.273 10.16C123.085 10.16 123.71 9.978 124.149 9.614C124.597 9.25 124.821 8.76467 124.821 8.158C124.821 7.486 124.569 6.97733 124.065 6.632C123.57 6.28667 122.73 6.114 121.545 6.114H119.459L119.963 1.2H125.325V2.096H120.845L120.509 5.218H121.769ZM129.839 1.2V11H128.831V2.096H126.521V1.2H129.839ZM137.455 5.078C137.689 4.58333 138.034 4.21 138.491 3.958C138.958 3.706 139.532 3.58 140.213 3.58V4.546L139.975 4.532C139.201 4.532 138.594 4.77 138.155 5.246C137.717 5.722 137.497 6.38933 137.497 7.248V11H136.503V3.636H137.455V5.078ZM148.357 7.626H142.197C142.253 8.39133 142.547 9.012 143.079 9.488C143.611 9.95467 144.283 10.188 145.095 10.188C145.552 10.188 145.972 10.1087 146.355 9.95C146.737 9.782 147.069 9.53933 147.349 9.222L147.909 9.866C147.582 10.258 147.171 10.5567 146.677 10.762C146.191 10.9673 145.655 11.07 145.067 11.07C144.311 11.07 143.639 10.9113 143.051 10.594C142.472 10.2673 142.019 9.81933 141.693 9.25C141.366 8.68067 141.203 8.03667 141.203 7.318C141.203 6.59933 141.357 5.95533 141.665 5.386C141.982 4.81667 142.411 4.37333 142.953 4.056C143.503 3.73867 144.119 3.58 144.801 3.58C145.482 3.58 146.093 3.73867 146.635 4.056C147.176 4.37333 147.601 4.81667 147.909 5.386C148.217 5.946 148.371 6.59 148.371 7.318L148.357 7.626ZM144.801 4.434C144.091 4.434 143.494 4.66267 143.009 5.12C142.533 5.568 142.262 6.156 142.197 6.884H147.419C147.353 6.156 147.078 5.568 146.593 5.12C146.117 4.66267 145.519 4.434 144.801 4.434ZM152.368 11.07C151.77 11.07 151.196 10.986 150.646 10.818C150.104 10.6407 149.68 10.4213 149.372 10.16L149.82 9.376C150.128 9.61867 150.515 9.81933 150.982 9.978C151.448 10.1273 151.934 10.202 152.438 10.202C153.11 10.202 153.604 10.0993 153.922 9.894C154.248 9.67933 154.412 9.38067 154.412 8.998C154.412 8.72733 154.323 8.51733 154.146 8.368C153.968 8.20933 153.744 8.09267 153.474 8.018C153.203 7.934 152.844 7.85467 152.396 7.78C151.798 7.668 151.318 7.556 150.954 7.444C150.59 7.32267 150.277 7.122 150.016 6.842C149.764 6.562 149.638 6.17467 149.638 5.68C149.638 5.064 149.894 4.56 150.408 4.168C150.921 3.776 151.635 3.58 152.55 3.58C153.026 3.58 153.502 3.64533 153.978 3.776C154.454 3.89733 154.846 4.06067 155.154 4.266L154.72 5.064C154.113 4.644 153.39 4.434 152.55 4.434C151.915 4.434 151.434 4.546 151.108 4.77C150.79 4.994 150.632 5.288 150.632 5.652C150.632 5.932 150.72 6.156 150.898 6.324C151.084 6.492 151.313 6.618 151.584 6.702C151.854 6.77667 152.228 6.856 152.704 6.94C153.292 7.052 153.763 7.164 154.118 7.276C154.472 7.388 154.776 7.57933 155.028 7.85C155.28 8.12067 155.406 8.494 155.406 8.97C155.406 9.614 155.135 10.1273 154.594 10.51C154.062 10.8833 153.32 11.07 152.368 11.07ZM163.879 3.636V11H162.927V9.656C162.666 10.104 162.307 10.454 161.849 10.706C161.392 10.9487 160.869 11.07 160.281 11.07C159.32 11.07 158.559 10.804 157.999 10.272C157.449 9.73067 157.173 8.942 157.173 7.906V3.636H158.167V7.808C158.167 8.58267 158.359 9.17067 158.741 9.572C159.124 9.97333 159.67 10.174 160.379 10.174C161.154 10.174 161.765 9.94067 162.213 9.474C162.661 8.998 162.885 8.34 162.885 7.5V3.636H163.879ZM166.663 0.611999H167.657V11H166.663V0.611999ZM174.328 10.552C174.142 10.72 173.908 10.8507 173.628 10.944C173.358 11.028 173.073 11.07 172.774 11.07C172.084 11.07 171.552 10.8833 171.178 10.51C170.805 10.1367 170.618 9.60933 170.618 8.928V4.476H169.302V3.636H170.618V2.026H171.612V3.636H173.852V4.476H171.612V8.872C171.612 9.31067 171.72 9.64667 171.934 9.88C172.158 10.104 172.476 10.216 172.886 10.216C173.092 10.216 173.288 10.1833 173.474 10.118C173.67 10.0527 173.838 9.95933 173.978 9.838L174.328 10.552ZM178.714 3.58C179.675 3.58 180.413 3.82267 180.926 4.308C181.439 4.784 181.696 5.49333 181.696 6.436V11H180.744V9.852C180.52 10.2347 180.189 10.5333 179.75 10.748C179.321 10.9627 178.807 11.07 178.21 11.07C177.389 11.07 176.735 10.874 176.25 10.482C175.765 10.09 175.522 9.572 175.522 8.928C175.522 8.30267 175.746 7.79867 176.194 7.416C176.651 7.03333 177.375 6.842 178.364 6.842H180.702V6.394C180.702 5.75933 180.525 5.27867 180.17 4.952C179.815 4.616 179.297 4.448 178.616 4.448C178.149 4.448 177.701 4.52733 177.272 4.686C176.843 4.83533 176.474 5.04533 176.166 5.316L175.718 4.574C176.091 4.25667 176.539 4.014 177.062 3.846C177.585 3.66867 178.135 3.58 178.714 3.58ZM178.364 10.286C178.924 10.286 179.405 10.16 179.806 9.908C180.207 9.64667 180.506 9.27333 180.702 8.788V7.584H178.392C177.132 7.584 176.502 8.02267 176.502 8.9C176.502 9.32933 176.665 9.67 176.992 9.922C177.319 10.1647 177.776 10.286 178.364 10.286ZM191.143 0.611999V11H190.191V9.544C189.892 10.0387 189.496 10.4167 189.001 10.678C188.516 10.9393 187.965 11.07 187.349 11.07C186.658 11.07 186.033 10.9113 185.473 10.594C184.913 10.2767 184.474 9.83333 184.157 9.264C183.84 8.69467 183.681 8.046 183.681 7.318C183.681 6.59 183.84 5.94133 184.157 5.372C184.474 4.80267 184.913 4.364 185.473 4.056C186.033 3.73867 186.658 3.58 187.349 3.58C187.946 3.58 188.483 3.706 188.959 3.958C189.444 4.20067 189.841 4.56 190.149 5.036V0.611999H191.143ZM187.433 10.188C187.946 10.188 188.408 10.0713 188.819 9.838C189.239 9.59533 189.566 9.25467 189.799 8.816C190.042 8.37733 190.163 7.878 190.163 7.318C190.163 6.758 190.042 6.25867 189.799 5.82C189.566 5.38133 189.239 5.04533 188.819 4.812C188.408 4.56933 187.946 4.448 187.433 4.448C186.91 4.448 186.439 4.56933 186.019 4.812C185.608 5.04533 185.282 5.38133 185.039 5.82C184.806 6.25867 184.689 6.758 184.689 7.318C184.689 7.878 184.806 8.37733 185.039 8.816C185.282 9.25467 185.608 9.59533 186.019 9.838C186.439 10.0713 186.91 10.188 187.433 10.188ZM196.921 11.07C196.212 11.07 195.573 10.9113 195.003 10.594C194.434 10.2673 193.986 9.81933 193.659 9.25C193.333 8.68067 193.169 8.03667 193.169 7.318C193.169 6.59933 193.333 5.95533 193.659 5.386C193.986 4.81667 194.434 4.37333 195.003 4.056C195.573 3.73867 196.212 3.58 196.921 3.58C197.631 3.58 198.27 3.73867 198.839 4.056C199.409 4.37333 199.852 4.81667 200.169 5.386C200.496 5.95533 200.659 6.59933 200.659 7.318C200.659 8.03667 200.496 8.68067 200.169 9.25C199.852 9.81933 199.409 10.2673 198.839 10.594C198.27 10.9113 197.631 11.07 196.921 11.07ZM196.921 10.188C197.444 10.188 197.911 10.0713 198.321 9.838C198.741 9.59533 199.068 9.25467 199.301 8.816C199.535 8.37733 199.651 7.878 199.651 7.318C199.651 6.758 199.535 6.25867 199.301 5.82C199.068 5.38133 198.741 5.04533 198.321 4.812C197.911 4.56933 197.444 4.448 196.921 4.448C196.399 4.448 195.927 4.56933 195.507 4.812C195.097 5.04533 194.77 5.38133 194.527 5.82C194.294 6.25867 194.177 6.758 194.177 7.318C194.177 7.878 194.294 8.37733 194.527 8.816C194.77 9.25467 195.097 9.59533 195.507 9.838C195.927 10.0713 196.399 10.188 196.921 10.188ZM204.663 11.07C204.065 11.07 203.491 10.986 202.941 10.818C202.399 10.6407 201.975 10.4213 201.667 10.16L202.115 9.376C202.423 9.61867 202.81 9.81933 203.277 9.978C203.743 10.1273 204.229 10.202 204.733 10.202C205.405 10.202 205.899 10.0993 206.217 9.894C206.543 9.67933 206.707 9.38067 206.707 8.998C206.707 8.72733 206.618 8.51733 206.441 8.368C206.263 8.20933 206.039 8.09267 205.769 8.018C205.498 7.934 205.139 7.85467 204.691 7.78C204.093 7.668 203.613 7.556 203.249 7.444C202.885 7.32267 202.572 7.122 202.311 6.842C202.059 6.562 201.933 6.17467 201.933 5.68C201.933 5.064 202.189 4.56 202.703 4.168C203.216 3.776 203.93 3.58 204.845 3.58C205.321 3.58 205.797 3.64533 206.273 3.776C206.749 3.89733 207.141 4.06067 207.449 4.266L207.015 5.064C206.408 4.644 205.685 4.434 204.845 4.434C204.21 4.434 203.729 4.546 203.403 4.77C203.085 4.994 202.927 5.288 202.927 5.652C202.927 5.932 203.015 6.156 203.193 6.324C203.379 6.492 203.608 6.618 203.879 6.702C204.149 6.77667 204.523 6.856 204.999 6.94C205.587 7.052 206.058 7.164 206.413 7.276C206.767 7.388 207.071 7.57933 207.323 7.85C207.575 8.12067 207.701 8.494 207.701 8.97C207.701 9.614 207.43 10.1273 206.889 10.51C206.357 10.8833 205.615 11.07 204.663 11.07Z" fill="#0D132B"/>
</svg>
