<svg width="441" height="48" viewBox="0 0 441 48" fill="none" xmlns="http://www.w3.org/2000/svg">
<rect x="0.5" y="0.5" width="440" height="47" rx="7.5" fill="#FAFAFA" stroke="#4889C7"/>
<path opacity="0.65" d="M32.46 17C34.22 17 35.6 17.42 36.6 18.26C37.6 19.0867 38.1 20.24 38.1 21.72C38.1 23.1867 37.6 24.34 36.6 25.18C35.6 26.0067 34.22 26.42 32.46 26.42H28.46V31H27.44V17H32.46ZM32.46 25.5C33.9533 25.5 35.0933 25.1733 35.88 24.52C36.6667 23.8667 37.06 22.9333 37.06 21.72C37.06 20.5067 36.6667 19.5733 35.88 18.92C35.0933 18.2533 33.9533 17.92 32.46 17.92H28.46V25.5H32.46ZM49.983 26.02H41.003C41.0296 26.8333 41.2363 27.56 41.623 28.2C42.0096 28.8267 42.5296 29.3133 43.183 29.66C43.8496 30.0067 44.5963 30.18 45.423 30.18C46.103 30.18 46.7296 30.06 47.303 29.82C47.8896 29.5667 48.3763 29.2 48.763 28.72L49.343 29.38C48.8896 29.9267 48.3163 30.3467 47.623 30.64C46.943 30.9333 46.203 31.08 45.403 31.08C44.363 31.08 43.4363 30.8533 42.623 30.4C41.8096 29.9467 41.1696 29.32 40.703 28.52C40.2496 27.72 40.023 26.8067 40.023 25.78C40.023 24.7667 40.2363 23.86 40.663 23.06C41.103 22.2467 41.703 21.6133 42.463 21.16C43.223 20.7067 44.0763 20.48 45.023 20.48C45.9696 20.48 46.8163 20.7067 47.563 21.16C48.323 21.6 48.9163 22.22 49.343 23.02C49.783 23.82 50.003 24.7267 50.003 25.74L49.983 26.02ZM45.023 21.36C44.2896 21.36 43.6296 21.5267 43.043 21.86C42.4563 22.18 41.983 22.64 41.623 23.24C41.2763 23.8267 41.0763 24.4933 41.023 25.24H49.023C48.983 24.4933 48.783 23.8267 48.423 23.24C48.063 22.6533 47.5896 22.1933 47.003 21.86C46.4163 21.5267 45.7563 21.36 45.023 21.36ZM55.7366 31.08C54.8966 31.08 54.0966 30.9533 53.3366 30.7C52.5766 30.4467 51.9832 30.1267 51.5566 29.74L52.0166 28.94C52.4432 29.3 52.9899 29.6 53.6566 29.84C54.3366 30.08 55.0432 30.2 55.7766 30.2C56.8299 30.2 57.6032 30.0267 58.0966 29.68C58.6032 29.3333 58.8566 28.8533 58.8566 28.24C58.8566 27.8 58.7166 27.4533 58.4366 27.2C58.1699 26.9467 57.8366 26.76 57.4366 26.64C57.0366 26.52 56.4832 26.3933 55.7766 26.26C54.9499 26.1133 54.2832 25.9533 53.7766 25.78C53.2699 25.6067 52.8366 25.3267 52.4766 24.94C52.1166 24.5533 51.9366 24.02 51.9366 23.34C51.9366 22.5133 52.2766 21.8333 52.9566 21.3C53.6499 20.7533 54.6299 20.48 55.8966 20.48C56.5632 20.48 57.2232 20.5733 57.8766 20.76C58.5299 20.9467 59.0632 21.1933 59.4766 21.5L59.0166 22.3C58.5899 21.9933 58.1032 21.76 57.5566 21.6C57.0099 21.44 56.4499 21.36 55.8766 21.36C54.9032 21.36 54.1699 21.54 53.6766 21.9C53.1832 22.26 52.9366 22.7333 52.9366 23.32C52.9366 23.7867 53.0766 24.1533 53.3566 24.42C53.6366 24.6733 53.9766 24.8667 54.3766 25C54.7899 25.12 55.3632 25.2533 56.0966 25.4C56.9099 25.5467 57.5632 25.7067 58.0566 25.88C58.5632 26.04 58.9899 26.3067 59.3366 26.68C59.6832 27.0533 59.8566 27.5667 59.8566 28.22C59.8566 29.0867 59.4966 29.78 58.7766 30.3C58.0566 30.82 57.0432 31.08 55.7366 31.08ZM71.9273 20.56V34.88H70.9273V28.58C70.5007 29.3667 69.914 29.98 69.1673 30.42C68.434 30.86 67.6007 31.08 66.6673 31.08C65.694 31.08 64.814 30.86 64.0273 30.42C63.2407 29.9667 62.6207 29.34 62.1673 28.54C61.7273 27.7267 61.5073 26.8067 61.5073 25.78C61.5073 24.7533 61.7273 23.84 62.1673 23.04C62.6207 22.24 63.2407 21.6133 64.0273 21.16C64.814 20.7067 65.694 20.48 66.6673 20.48C67.614 20.48 68.4607 20.7 69.2073 21.14C69.954 21.58 70.534 22.2067 70.9473 23.02V20.56H71.9273ZM66.7273 30.18C67.5273 30.18 68.2407 29.9933 68.8673 29.62C69.5073 29.2467 70.0073 28.7267 70.3673 28.06C70.7407 27.3933 70.9273 26.6333 70.9273 25.78C70.9273 24.9267 70.7407 24.1667 70.3673 23.5C70.0073 22.8333 69.5073 22.3133 68.8673 21.94C68.2407 21.5667 67.5273 21.38 66.7273 21.38C65.9273 21.38 65.2073 21.5667 64.5673 21.94C63.9407 22.3133 63.4407 22.8333 63.0673 23.5C62.7073 24.1667 62.5273 24.9267 62.5273 25.78C62.5273 26.6333 62.7073 27.3933 63.0673 28.06C63.4407 28.7267 63.9407 29.2467 64.5673 29.62C65.2073 29.9933 65.9273 30.18 66.7273 30.18ZM85.2834 20.56V31H84.3234V28.76C83.9768 29.4933 83.4634 30.0667 82.7834 30.48C82.1034 30.88 81.3034 31.08 80.3834 31.08C79.0234 31.08 77.9568 30.7 77.1834 29.94C76.4101 29.18 76.0234 28.0867 76.0234 26.66V20.56H77.0234V26.58C77.0234 27.7533 77.3234 28.6467 77.9234 29.26C78.5234 29.8733 79.3701 30.18 80.4634 30.18C81.6368 30.18 82.5634 29.8133 83.2434 29.08C83.9368 28.3467 84.2834 27.36 84.2834 26.12V20.56H85.2834ZM89.5223 20.56H90.5223V31H89.5223V20.56ZM90.0223 18.02C89.7957 18.02 89.6023 17.9467 89.4423 17.8C89.2823 17.64 89.2023 17.4467 89.2023 17.22C89.2023 16.9933 89.2823 16.8 89.4423 16.64C89.6023 16.48 89.7957 16.4 90.0223 16.4C90.249 16.4 90.4423 16.48 90.6023 16.64C90.7623 16.7867 90.8423 16.9733 90.8423 17.2C90.8423 17.4267 90.7623 17.62 90.6023 17.78C90.4423 17.94 90.249 18.02 90.0223 18.02ZM97.3772 31.08C96.5372 31.08 95.7372 30.9533 94.9772 30.7C94.2172 30.4467 93.6239 30.1267 93.1972 29.74L93.6572 28.94C94.0839 29.3 94.6305 29.6 95.2972 29.84C95.9772 30.08 96.6839 30.2 97.4172 30.2C98.4705 30.2 99.2439 30.0267 99.7372 29.68C100.244 29.3333 100.497 28.8533 100.497 28.24C100.497 27.8 100.357 27.4533 100.077 27.2C99.8105 26.9467 99.4772 26.76 99.0772 26.64C98.6772 26.52 98.1239 26.3933 97.4172 26.26C96.5905 26.1133 95.9239 25.9533 95.4172 25.78C94.9105 25.6067 94.4772 25.3267 94.1172 24.94C93.7572 24.5533 93.5772 24.02 93.5772 23.34C93.5772 22.5133 93.9172 21.8333 94.5972 21.3C95.2905 20.7533 96.2705 20.48 97.5372 20.48C98.2039 20.48 98.8639 20.5733 99.5172 20.76C100.171 20.9467 100.704 21.1933 101.117 21.5L100.657 22.3C100.231 21.9933 99.7439 21.76 99.1972 21.6C98.6505 21.44 98.0905 21.36 97.5172 21.36C96.5439 21.36 95.8105 21.54 95.3172 21.9C94.8239 22.26 94.5772 22.7333 94.5772 23.32C94.5772 23.7867 94.7172 24.1533 94.9972 24.42C95.2772 24.6733 95.6172 24.8667 96.0172 25C96.4305 25.12 97.0039 25.2533 97.7372 25.4C98.5505 25.5467 99.2039 25.7067 99.6972 25.88C100.204 26.04 100.631 26.3067 100.977 26.68C101.324 27.0533 101.497 27.5667 101.497 28.22C101.497 29.0867 101.137 29.78 100.417 30.3C99.6972 30.82 98.6839 31.08 97.3772 31.08ZM107.808 20.48C109.101 20.48 110.095 20.8133 110.788 21.48C111.481 22.1333 111.828 23.1 111.828 24.38V31H110.868V29.14C110.535 29.7533 110.048 30.2333 109.408 30.58C108.768 30.9133 108.001 31.08 107.108 31.08C105.948 31.08 105.028 30.8067 104.348 30.26C103.681 29.7133 103.348 28.9933 103.348 28.1C103.348 27.2333 103.655 26.5333 104.268 26C104.895 25.4533 105.888 25.18 107.248 25.18H110.828V24.34C110.828 23.3667 110.561 22.6267 110.028 22.12C109.508 21.6133 108.741 21.36 107.728 21.36C107.035 21.36 106.368 21.48 105.728 21.72C105.101 21.96 104.568 22.28 104.128 22.68L103.628 21.96C104.148 21.4933 104.775 21.1333 105.508 20.88C106.241 20.6133 107.008 20.48 107.808 20.48ZM107.248 30.26C108.115 30.26 108.848 30.06 109.448 29.66C110.061 29.26 110.521 28.68 110.828 27.92V25.96H107.268C106.241 25.96 105.495 26.1467 105.028 26.52C104.575 26.8933 104.348 27.4067 104.348 28.06C104.348 28.74 104.601 29.28 105.108 29.68C105.615 30.0667 106.328 30.26 107.248 30.26ZM116.908 22.84C117.228 22.08 117.728 21.5 118.408 21.1C119.088 20.6867 119.915 20.48 120.888 20.48V21.46L120.648 21.44C119.488 21.44 118.581 21.8067 117.928 22.54C117.275 23.26 116.948 24.2667 116.948 25.56V31H115.948V20.56H116.908V22.84Z" fill="#0D132B"/>
<path opacity="0.65" d="M420.5 26H419.71L419.43 25.73C420.41 24.59 421 23.11 421 21.5C421 17.91 418.09 15 414.5 15C410.91 15 408 17.91 408 21.5C408 25.09 410.91 28 414.5 28C416.11 28 417.59 27.41 418.73 26.43L419 26.71V27.5L424 32.49L425.49 31L420.5 26Z" fill="#0D132B"/>
<path d="M414.5 26C412.01 26 410 23.99 410 21.5C410 19.01 412.01 17 414.5 17C416.99 17 419 19.01 419 21.5C419 23.99 416.99 26 414.5 26Z" fill="#FAFAFA"/>
</svg>
