<svg width="17" height="17" viewBox="0 0 17 17" fill="none" xmlns="http://www.w3.org/2000/svg">
<path fill-rule="evenodd" clip-rule="evenodd" d="M0 8.5C0 3.7995 3.7995 0 8.5 0C13.2005 0 17 3.7995 17 8.5C17 13.2005 13.2005 17 8.5 17C3.7995 17 0 13.2005 0 8.5ZM10.9565 12.155C11.288 12.4865 11.8235 12.4865 12.155 12.155C12.478 11.8235 12.478 11.2795 12.155 10.9565L9.69855 8.5L12.155 6.0435C12.4865 5.712 12.4865 5.1765 12.155 4.845C11.8235 4.5135 11.288 4.5135 10.9565 4.845L8.50005 7.3015L6.04355 4.845C5.71205 4.5135 5.17655 4.5135 4.84505 4.845C4.68588 5.0038 4.59644 5.21941 4.59644 5.44425C4.59644 5.66909 4.68588 5.88469 4.84505 6.0435L7.30155 8.5L4.84505 10.9565C4.68588 11.1153 4.59644 11.3309 4.59644 11.5557C4.59644 11.7806 4.68588 11.9962 4.84505 12.155C5.17655 12.4865 5.71205 12.4865 6.04355 12.155L8.50005 9.6985L10.9565 12.155Z" fill="#606060"/>
</svg>
