<svg width="30" height="26" viewBox="0 0 30 26" fill="none" xmlns="http://www.w3.org/2000/svg">
<path d="M12.1 24.8C12.1552 24.8 12.2 24.7552 12.2 24.7V16.5C12.2 16.4448 12.2448 16.4 12.3 16.4H17.7C17.7552 16.4 17.8 16.4448 17.8 16.5V24.7C17.8 24.7552 17.8448 24.8 17.9 24.8H24.7C24.7552 24.8 24.8 24.7552 24.8 24.7V13.7C24.8 13.6448 24.8448 13.6 24.9 13.6H28.7394C28.8311 13.6 28.8744 13.487 28.8063 13.4257L15.0669 1.06021C15.0289 1.02598 14.9711 1.02598 14.9331 1.06021L1.1937 13.4257C1.12558 13.487 1.16895 13.6 1.2606 13.6H5.1C5.15523 13.6 5.2 13.6448 5.2 13.7V24.7C5.2 24.7552 5.24477 24.8 5.3 24.8H12.1Z" stroke="#F2F2F2" stroke-width="2"/>
</svg>
