<svg width="17" height="17" viewBox="0 0 17 17" fill="none" xmlns="http://www.w3.org/2000/svg">
<path fill-rule="evenodd" clip-rule="evenodd" d="M14.6696 2.86313C14.9458 2.58691 14.9458 2.14071 14.6696 1.86448L13.0121 0.207156C12.8797 0.0745323 12.7001 0 12.5127 0C12.3253 0 12.1457 0.0745323 12.0133 0.207156L10.625 1.59535L13.2812 4.25132L14.6696 2.86313ZM12.573 4.95956L9.91671 2.30359L2.93962 9.27995C2.86879 9.35077 2.83337 9.43577 2.83337 9.53492V11.688C2.83337 11.8863 2.98921 12.0422 3.18754 12.0422H5.34087C5.43296 12.0422 5.52504 12.0068 5.58879 11.9359L12.573 4.95956ZM15.5833 14.167H1.41667C0.6375 14.167 0 14.8044 0 15.5835C0 16.3626 0.6375 17 1.41667 17H15.5833C16.3625 17 17 16.3626 17 15.5835C17 14.8044 16.3625 14.167 15.5833 14.167Z" fill="#606060"/>
</svg>
