<svg width="106" height="106" viewBox="0 0 106 106" fill="none" xmlns="http://www.w3.org/2000/svg">
<rect width="106" height="106" rx="53" fill="#F2F2F2"/>
<path d="M69.8242 60.9687C67.1557 58.1914 63.9795 56.1354 60.5141 54.8907C64.2256 52.2301 66.6641 47.7772 66.6641 42.7422C66.6641 34.6134 60.31 28 52.5 28C44.69 28 38.3359 34.6134 38.3359 42.7422C38.3359 47.7772 40.7744 52.2301 44.486 54.8907C41.0206 56.1354 37.8444 58.1914 35.1759 60.9687C30.5485 65.7851 28 72.1887 28 79H31.8281C31.8281 67.1362 41.1015 57.4844 52.5 57.4844C63.8985 57.4844 73.1719 67.1362 73.1719 79H77C77 72.1887 74.4515 65.7851 69.8242 60.9687ZM52.5 53.5C46.8008 53.5 42.1641 48.6741 42.1641 42.7422C42.1641 36.8103 46.8008 31.9844 52.5 31.9844C58.1992 31.9844 62.8359 36.8103 62.8359 42.7422C62.8359 48.6741 58.1992 53.5 52.5 53.5Z" fill="#202020" fill-opacity="0.21"/>
<path d="M92 78C86.49 78 82 82.49 82 88C82 93.51 86.49 98 92 98C97.51 98 102 93.51 102 88C102 82.49 97.51 78 92 78Z" fill="#606060"/>
<path d="M92 83C91.45 83 91 83.45 91 84V87H88C87.45 87 87 87.45 87 88C87 88.55 87.45 89 88 89H91V92C91 92.55 91.45 93 92 93C92.55 93 93 92.55 93 92V89H96C96.55 89 97 88.55 97 88C97 87.45 96.55 87 96 87H93V84C93 83.45 92.55 83 92 83Z" fill="#C4C4C4"/>
</svg>
