<svg width="26" height="28" viewBox="0 0 26 28" fill="none" xmlns="http://www.w3.org/2000/svg">
<path d="M22.1924 17.5174C20.7765 16.0418 19.0912 14.9493 17.2524 14.288C19.2218 12.8743 20.5156 10.5083 20.5156 7.83305C20.5156 3.51392 17.1441 0 13 0C8.85589 0 5.48438 3.51392 5.48438 7.83305C5.48438 10.5083 6.77823 12.8743 8.74768 14.288C6.90889 14.9493 5.22356 16.0418 3.80763 17.5174C1.35225 20.0766 0 23.479 0 27.0981H2.03125C2.03125 20.7945 6.9518 15.6661 13 15.6661C19.0482 15.6661 23.9688 20.7945 23.9688 27.0981H26C26 23.479 24.6477 20.0766 22.1924 17.5174ZM13 13.5491C9.97593 13.5491 7.51562 10.9849 7.51562 7.83305C7.51562 4.6812 9.97593 2.11704 13 2.11704C16.0241 2.11704 18.4844 4.6812 18.4844 7.83305C18.4844 10.9849 16.0241 13.5491 13 13.5491Z" fill="white"/>
</svg>
