<svg width="32" height="32" viewBox="0 0 32 32" fill="none" xmlns="http://www.w3.org/2000/svg">
<rect x="0.5" y="0.5" width="31" height="31" rx="15.5" fill="#F2F2F2" stroke="#606060"/>
<path d="M21.0475 17.9166C20.27 17.1124 19.3445 16.5169 18.3348 16.1565C19.4162 15.386 20.1267 14.0965 20.1267 12.6384C20.1267 10.2843 18.2754 8.36914 15.9998 8.36914C13.7242 8.36914 11.8729 10.2843 11.8729 12.6384C11.8729 14.0965 12.5833 15.386 13.6648 16.1565C12.6551 16.5169 11.7297 17.1124 10.9521 17.9166C9.60387 19.3114 8.86133 21.1659 8.86133 23.1384H9.97671C9.97671 19.7027 12.6786 16.9076 15.9998 16.9076C19.3209 16.9076 22.0229 19.7027 22.0229 23.1384H23.1383C23.1383 21.1659 22.3957 19.3114 21.0475 17.9166ZM15.9998 15.7538C14.3392 15.7538 12.9883 14.3562 12.9883 12.6384C12.9883 10.9205 14.3392 9.52299 15.9998 9.52299C17.6603 9.52299 19.0113 10.9205 19.0113 12.6384C19.0113 14.3562 17.6603 15.7538 15.9998 15.7538Z" fill="#202020" fill-opacity="0.21"/>
</svg>
