<svg width="26" height="26" viewBox="0 0 26 26" fill="none" xmlns="http://www.w3.org/2000/svg">
<path fill-rule="evenodd" clip-rule="evenodd" d="M12.8333 0C5.76217 0 0 5.76217 0 12.8333C0 19.9045 5.76217 25.6667 12.8333 25.6667C19.9045 25.6667 25.6667 19.9045 25.6667 12.8333C25.6667 5.76217 19.9045 0 12.8333 0ZM12.8334 6.41675C12.1275 6.41675 11.55 6.99425 11.55 7.70008V11.5501H7.70002C6.99419 11.5501 6.41669 12.1276 6.41669 12.8334C6.41669 13.5392 6.99419 14.1167 7.70002 14.1167H11.55V17.9667C11.55 18.6726 12.1275 19.2501 12.8334 19.2501C13.5392 19.2501 14.1167 18.6726 14.1167 17.9667V14.1167H17.9667C18.6725 14.1167 19.25 13.5392 19.25 12.8334C19.25 12.1276 18.6725 11.5501 17.9667 11.5501H14.1167V7.70008C14.1167 6.99425 13.5392 6.41675 12.8334 6.41675ZM2.56671 12.8333C2.56671 18.4928 7.17388 23.1 12.8334 23.1C18.4929 23.1 23.1 18.4928 23.1 12.8333C23.1 7.17382 18.4929 2.56665 12.8334 2.56665C7.17388 2.56665 2.56671 7.17382 2.56671 12.8333Z" fill="#009B77"/>
</svg>
