<svg width="26" height="27" viewBox="0 0 26 27" fill="none" xmlns="http://www.w3.org/2000/svg">
<path d="M23.9661 1H2.0337C1.64687 0.999243 1.29224 1.22324 1.11541 1.57998C0.936143 1.94152 0.967606 2.37688 1.19663 2.70706L9.23172 14.4401C9.2344 14.4441 9.23733 14.4479 9.24001 14.452C9.53196 14.8605 9.68977 15.3553 9.69074 15.864V25.4298C9.68904 25.7132 9.79635 25.9853 9.98904 26.1862C10.1817 26.3872 10.4437 26.5 10.7168 26.5C10.8559 26.5 10.9932 26.4712 11.1215 26.4161L15.6366 24.6314C16.0412 24.5035 16.3097 24.1078 16.3097 23.6312V15.864C16.3105 15.3556 16.4685 14.8605 16.7602 14.452C16.7629 14.4479 16.7658 14.4441 16.7685 14.4401L24.8034 2.70656C25.0324 2.37662 25.0639 1.94152 24.8846 1.57998C24.7078 1.22324 24.3531 0.999243 23.9661 1ZM15.7534 13.6852C15.3046 14.3165 15.0619 15.0797 15.0605 15.864V23.474L10.9395 25.1026V15.864C10.9381 15.0797 10.6954 14.3165 10.2464 13.6852L2.44565 2.29446H23.5543L15.7534 13.6852Z" fill="white" stroke="white" stroke-width="0.5"/>
</svg>
